<mxfile host="app.diagrams.net" modified="2023-10-09T12:36:32.836Z" agent="Mozilla/5.0 (Macintosh; Intel Mac OS X 10_15_7) AppleWebKit/537.36 (KHTML, like Gecko) Chrome/114.0.0.0 Safari/537.36" etag="jAukQPNV4X0iTJdhUYbJ" version="21.6.5" type="github">
  <diagram name="Page-1" id="Nu6lW3mwtCU4OB_ogOdU">
    <mxGraphModel dx="954" dy="529" grid="1" gridSize="10" guides="1" tooltips="1" connect="1" arrows="1" fold="1" page="1" pageScale="1" pageWidth="850" pageHeight="1100" math="0" shadow="0">
      <root>
        <mxCell id="0" />
        <mxCell id="1" parent="0" />
        <mxCell id="K0jnrHna0uVdqBG3VOWd-3" value="" style="edgeStyle=orthogonalEdgeStyle;rounded=0;orthogonalLoop=1;jettySize=auto;html=1;" edge="1" parent="1" source="K0jnrHna0uVdqBG3VOWd-1" target="K0jnrHna0uVdqBG3VOWd-2">
          <mxGeometry relative="1" as="geometry" />
        </mxCell>
        <mxCell id="K0jnrHna0uVdqBG3VOWd-1" value="1, 2, 3" style="rounded=1;whiteSpace=wrap;html=1;" vertex="1" parent="1">
          <mxGeometry x="350" y="30" width="120" height="60" as="geometry" />
        </mxCell>
        <mxCell id="K0jnrHna0uVdqBG3VOWd-2" value="" style="rhombus;whiteSpace=wrap;html=1;rounded=1;" vertex="1" parent="1">
          <mxGeometry x="370" y="160" width="80" height="50" as="geometry" />
        </mxCell>
        <mxCell id="K0jnrHna0uVdqBG3VOWd-4" value="" style="shape=flexArrow;endArrow=classic;html=1;rounded=0;exitX=0;exitY=0.5;exitDx=0;exitDy=0;" edge="1" parent="1" source="K0jnrHna0uVdqBG3VOWd-2">
          <mxGeometry width="50" height="50" relative="1" as="geometry">
            <mxPoint x="400" y="300" as="sourcePoint" />
            <mxPoint x="330" y="240" as="targetPoint" />
          </mxGeometry>
        </mxCell>
        <mxCell id="K0jnrHna0uVdqBG3VOWd-5" value="" style="shape=flexArrow;endArrow=classic;html=1;rounded=0;exitX=0.5;exitY=1;exitDx=0;exitDy=0;" edge="1" parent="1" source="K0jnrHna0uVdqBG3VOWd-2">
          <mxGeometry width="50" height="50" relative="1" as="geometry">
            <mxPoint x="400" y="300" as="sourcePoint" />
            <mxPoint x="420" y="260" as="targetPoint" />
            <Array as="points" />
          </mxGeometry>
        </mxCell>
        <mxCell id="K0jnrHna0uVdqBG3VOWd-7" value="" style="shape=flexArrow;endArrow=classic;html=1;rounded=0;exitX=0.925;exitY=0.48;exitDx=0;exitDy=0;exitPerimeter=0;" edge="1" parent="1" source="K0jnrHna0uVdqBG3VOWd-2">
          <mxGeometry width="50" height="50" relative="1" as="geometry">
            <mxPoint x="400" y="300" as="sourcePoint" />
            <mxPoint x="490" y="220" as="targetPoint" />
          </mxGeometry>
        </mxCell>
        <mxCell id="K0jnrHna0uVdqBG3VOWd-8" value="2, 3" style="rounded=0;whiteSpace=wrap;html=1;" vertex="1" parent="1">
          <mxGeometry x="280" y="240" width="80" height="40" as="geometry" />
        </mxCell>
        <mxCell id="K0jnrHna0uVdqBG3VOWd-9" value="1, 2" style="rounded=0;whiteSpace=wrap;html=1;" vertex="1" parent="1">
          <mxGeometry x="470" y="220" width="80" height="40" as="geometry" />
        </mxCell>
        <mxCell id="K0jnrHna0uVdqBG3VOWd-10" value="1, 3" style="rounded=0;whiteSpace=wrap;html=1;" vertex="1" parent="1">
          <mxGeometry x="370" y="250" width="80" height="40" as="geometry" />
        </mxCell>
        <mxCell id="K0jnrHna0uVdqBG3VOWd-17" value="" style="shape=flexArrow;endArrow=classic;html=1;rounded=0;width=7;endSize=8.39;exitX=0.425;exitY=1.025;exitDx=0;exitDy=0;exitPerimeter=0;entryX=1;entryY=0;entryDx=0;entryDy=0;" edge="1" parent="1" source="K0jnrHna0uVdqBG3VOWd-8" target="K0jnrHna0uVdqBG3VOWd-19">
          <mxGeometry width="50" height="50" relative="1" as="geometry">
            <mxPoint x="400" y="300" as="sourcePoint" />
            <mxPoint x="280" y="320" as="targetPoint" />
          </mxGeometry>
        </mxCell>
        <mxCell id="K0jnrHna0uVdqBG3VOWd-18" value="" style="shape=flexArrow;endArrow=classic;html=1;rounded=0;exitX=0.5;exitY=1;exitDx=0;exitDy=0;entryX=0.5;entryY=0;entryDx=0;entryDy=0;" edge="1" parent="1" source="K0jnrHna0uVdqBG3VOWd-8" target="K0jnrHna0uVdqBG3VOWd-20">
          <mxGeometry width="50" height="50" relative="1" as="geometry">
            <mxPoint x="400" y="300" as="sourcePoint" />
            <mxPoint x="310" y="320" as="targetPoint" />
          </mxGeometry>
        </mxCell>
        <mxCell id="K0jnrHna0uVdqBG3VOWd-19" value="2" style="rounded=0;whiteSpace=wrap;html=1;" vertex="1" parent="1">
          <mxGeometry x="200" y="320" width="50" height="40" as="geometry" />
        </mxCell>
        <mxCell id="K0jnrHna0uVdqBG3VOWd-20" value="3" style="rounded=0;whiteSpace=wrap;html=1;" vertex="1" parent="1">
          <mxGeometry x="290" y="330" width="50" height="40" as="geometry" />
        </mxCell>
        <mxCell id="K0jnrHna0uVdqBG3VOWd-21" value="" style="shape=flexArrow;endArrow=classic;html=1;rounded=0;width=7;endSize=8.39;exitX=0.425;exitY=1.025;exitDx=0;exitDy=0;exitPerimeter=0;" edge="1" parent="1" target="K0jnrHna0uVdqBG3VOWd-23">
          <mxGeometry width="50" height="50" relative="1" as="geometry">
            <mxPoint x="404" y="290" as="sourcePoint" />
            <mxPoint x="370" y="329" as="targetPoint" />
            <Array as="points">
              <mxPoint x="404" y="290" />
            </Array>
          </mxGeometry>
        </mxCell>
        <mxCell id="K0jnrHna0uVdqBG3VOWd-22" value="" style="shape=flexArrow;endArrow=classic;html=1;rounded=0;exitX=0.5;exitY=1;exitDx=0;exitDy=0;entryX=0.25;entryY=0;entryDx=0;entryDy=0;" edge="1" parent="1" target="K0jnrHna0uVdqBG3VOWd-24">
          <mxGeometry width="50" height="50" relative="1" as="geometry">
            <mxPoint x="410" y="290" as="sourcePoint" />
            <mxPoint x="440" y="360" as="targetPoint" />
          </mxGeometry>
        </mxCell>
        <mxCell id="K0jnrHna0uVdqBG3VOWd-23" value="1" style="rounded=0;whiteSpace=wrap;html=1;" vertex="1" parent="1">
          <mxGeometry x="360" y="370" width="50" height="40" as="geometry" />
        </mxCell>
        <mxCell id="K0jnrHna0uVdqBG3VOWd-24" value="3" style="rounded=0;whiteSpace=wrap;html=1;" vertex="1" parent="1">
          <mxGeometry x="425" y="370" width="50" height="40" as="geometry" />
        </mxCell>
        <mxCell id="K0jnrHna0uVdqBG3VOWd-25" value="" style="shape=flexArrow;endArrow=classic;html=1;rounded=0;width=7;endSize=8.39;exitX=0.425;exitY=1.025;exitDx=0;exitDy=0;exitPerimeter=0;" edge="1" parent="1">
          <mxGeometry width="50" height="50" relative="1" as="geometry">
            <mxPoint x="534" y="261" as="sourcePoint" />
            <mxPoint x="500" y="300" as="targetPoint" />
          </mxGeometry>
        </mxCell>
        <mxCell id="K0jnrHna0uVdqBG3VOWd-26" value="" style="shape=flexArrow;endArrow=classic;html=1;rounded=0;exitX=0.5;exitY=1;exitDx=0;exitDy=0;" edge="1" parent="1">
          <mxGeometry width="50" height="50" relative="1" as="geometry">
            <mxPoint x="540" y="260" as="sourcePoint" />
            <mxPoint x="570" y="300" as="targetPoint" />
          </mxGeometry>
        </mxCell>
        <mxCell id="K0jnrHna0uVdqBG3VOWd-27" value="1" style="rounded=0;whiteSpace=wrap;html=1;" vertex="1" parent="1">
          <mxGeometry x="460" y="300" width="50" height="40" as="geometry" />
        </mxCell>
        <mxCell id="K0jnrHna0uVdqBG3VOWd-28" value="2" style="rounded=0;whiteSpace=wrap;html=1;" vertex="1" parent="1">
          <mxGeometry x="560" y="300" width="50" height="40" as="geometry" />
        </mxCell>
      </root>
    </mxGraphModel>
  </diagram>
</mxfile>
